<svg xmlns="http://www.w3.org/2000/svg" width="73" height="73" fill="none" viewBox="0 0 73 73"><circle cx="36.5" cy="36.5" r="34" stroke="url(#paint0_radial)" stroke-width="5"/><path fill="url(#paint1_linear)" d="M36.251 35.7651C36.251 38.4946 35.7686 40.8877 34.8037 42.9443C33.8389 45.001 32.4551 46.5879 30.6523 47.7051C28.8623 48.8223 26.8057 49.3809 24.4824 49.3809C22.1846 49.3809 20.1343 48.8286 18.3315 47.7241C16.5288 46.6196 15.1323 45.0454 14.1421 43.0015C13.1519 40.9448 12.6504 38.5835 12.6377 35.9175V34.5464C12.6377 31.8169 13.1265 29.4175 14.104 27.3481C15.0942 25.2661 16.4844 23.6729 18.2744 22.5684C20.0771 21.4512 22.1338 20.8926 24.4443 20.8926C26.7549 20.8926 28.8052 21.4512 30.5952 22.5684C32.3979 23.6729 33.7881 25.2661 34.7656 27.3481C35.7559 29.4175 36.251 31.8105 36.251 34.5273V35.7651ZM30.4619 34.5083C30.4619 31.6011 29.9414 29.3921 28.9004 27.8813C27.8594 26.3706 26.374 25.6152 24.4443 25.6152C22.5273 25.6152 21.0483 26.3643 20.0073 27.8623C18.9663 29.3477 18.4395 31.5312 18.4268 34.4131V35.7651C18.4268 38.5962 18.9473 40.7925 19.9883 42.354C21.0293 43.9155 22.5273 44.6963 24.4824 44.6963C26.3994 44.6963 27.8721 43.9473 28.9004 42.4492C29.9287 40.9385 30.4492 38.7422 30.4619 35.8604V34.5083Z"/><path fill="url(#paint2_linear)" d="M54.7798 41.7256C54.7798 40.6465 54.3989 39.8213 53.6372 39.25C52.8755 38.666 51.5044 38.0566 49.5239 37.4219C47.5435 36.7744 45.9756 36.1396 44.8203 35.5176C41.6719 33.8164 40.0977 31.5249 40.0977 28.6431C40.0977 27.145 40.5166 25.812 41.3545 24.644C42.2051 23.4634 43.4175 22.543 44.9917 21.8828C46.5786 21.2227 48.356 20.8926 50.3237 20.8926C52.3042 20.8926 54.0688 21.2544 55.6177 21.978C57.1665 22.689 58.3662 23.6982 59.2168 25.0059C60.0801 26.3135 60.5117 27.7988 60.5117 29.4619H54.7988C54.7988 28.1924 54.3989 27.2085 53.5991 26.5103C52.7993 25.7993 51.6758 25.4438 50.2285 25.4438C48.832 25.4438 47.7466 25.7422 46.9722 26.3389C46.1978 26.9229 45.8105 27.6973 45.8105 28.6621C45.8105 29.5635 46.2612 30.3188 47.1626 30.9282C48.0767 31.5376 49.416 32.1089 51.1807 32.6421C54.4307 33.6196 56.7983 34.832 58.2837 36.2793C59.769 37.7266 60.5117 39.5293 60.5117 41.6875C60.5117 44.0869 59.604 45.9722 57.7886 47.3433C55.9731 48.7017 53.5293 49.3809 50.457 49.3809C48.3242 49.3809 46.3818 48.9937 44.6299 48.2192C42.8779 47.4321 41.5386 46.3594 40.6118 45.001C39.6978 43.6426 39.2407 42.0684 39.2407 40.2783H44.9727C44.9727 43.3379 46.8008 44.8677 50.457 44.8677C51.8154 44.8677 52.8755 44.5947 53.6372 44.0488C54.3989 43.4902 54.7798 42.7158 54.7798 41.7256Z"/><defs><radialGradient id="paint0_radial" cx="0" cy="0" r="1" gradientTransform="translate(25 13.5) rotate(79.0609) scale(60.6012)" gradientUnits="userSpaceOnUse"><stop stop-color="#2F10ED"/><stop offset=".474" stop-color="#F580CD" stop-opacity=".94"/><stop offset="1" stop-color="#3818FC" stop-opacity=".88"/></radialGradient><linearGradient id="paint1_linear" x1="36.5" x2="36.5" y1="13" y2="59" gradientUnits="userSpaceOnUse"><stop stop-color="#1628CC"/><stop offset="1" stop-color="#066FEB" stop-opacity=".94"/></linearGradient><linearGradient id="paint2_linear" x1="36.5" x2="36.5" y1="13" y2="59" gradientUnits="userSpaceOnUse"><stop stop-color="#1081E9"/><stop offset="1" stop-color="#129AFC" stop-opacity=".51"/></linearGradient></defs></svg>