<svg width="73" height="73" viewBox="0 0 73 73" fill="none" xmlns="http://www.w3.org/2000/svg">
<path d="M36.4902 24.3282C29.788 24.3282 24.3186 29.7977 24.3186 36.5C24.3186 43.2023 29.788 48.6718 36.4902 48.6718C43.1923 48.6718 48.6618 43.2023 48.6618 36.5C48.6618 29.7977 43.1923 24.3282 36.4902 24.3282ZM72.9959 36.5C72.9959 31.4596 73.0416 26.4648 72.7585 21.4336C72.4755 15.5896 71.1423 10.4031 66.869 6.12973C62.5866 1.84721 57.4093 0.523193 51.5655 0.240126C46.5252 -0.04294 41.5305 0.00271601 36.4993 0.00271601C31.459 0.00271601 26.4644 -0.04294 21.4332 0.240126C15.5893 0.523193 10.4029 1.85634 6.12962 6.12973C1.84718 10.4122 0.523183 15.5896 0.240122 21.4336C-0.0429392 26.474 0.00271596 31.4687 0.00271596 36.5C0.00271596 41.5313 -0.0429392 46.5352 0.240122 51.5664C0.523183 57.4104 1.85631 62.5969 6.12962 66.8703C10.4121 71.1528 15.5893 72.4768 21.4332 72.7599C26.4735 73.0429 31.4681 72.9973 36.4993 72.9973C41.5396 72.9973 46.5343 73.0429 51.5655 72.7599C57.4093 72.4768 62.5957 71.1437 66.869 66.8703C71.1515 62.5877 72.4755 57.4104 72.7585 51.5664C73.0507 46.5352 72.9959 41.5404 72.9959 36.5V36.5ZM36.4902 55.228C26.1265 55.228 17.7625 46.8639 17.7625 36.5C17.7625 26.1361 26.1265 17.772 36.4902 17.772C46.8539 17.772 55.2179 26.1361 55.2179 36.5C55.2179 46.8639 46.8539 55.228 36.4902 55.228ZM55.9849 21.3788C53.5652 21.3788 51.6111 19.4247 51.6111 17.005C51.6111 14.5852 53.5652 12.6311 55.9849 12.6311C58.4046 12.6311 60.3586 14.5852 60.3586 17.005C60.3593 17.5795 60.2467 18.1486 60.0272 18.6796C59.8076 19.2106 59.4855 19.693 59.0792 20.0993C58.6729 20.5056 58.1905 20.8278 57.6595 21.0473C57.1285 21.2669 56.5594 21.3795 55.9849 21.3788V21.3788Z" fill="black"/>
</svg>
