<svg width="72" height="72" viewBox="0 0 72 72" fill="none" xmlns="http://www.w3.org/2000/svg">
<path fill-rule="evenodd" clip-rule="evenodd" d="M8.90377e-07 6.01528C8.90377e-07 4.41993 0.633751 2.88992 1.76183 1.76184C2.88992 0.633758 4.41992 8.01921e-06 6.01527 8.01921e-06H65.9782C66.7688 -0.00128324 67.5519 0.153378 68.2826 0.455135C69.0134 0.756893 69.6775 1.19982 70.2368 1.75856C70.7962 2.3173 71.2398 2.98088 71.5424 3.71131C71.8449 4.44174 72.0004 5.22467 72 6.01528V65.9782C72.0009 66.7689 71.8458 67.5521 71.5437 68.2829C71.2416 69.0137 70.7983 69.6777 70.2393 70.237C69.6803 70.7963 69.0165 71.2399 68.2859 71.5424C67.5553 71.8449 66.7722 72.0004 65.9814 72H6.01527C5.22506 72 4.44259 71.8443 3.71257 71.5418C2.98255 71.2393 2.31929 70.7959 1.76068 70.237C1.20206 69.6781 0.75905 69.0146 0.456947 68.2844C0.154843 67.5542 -0.00042904 66.7717 8.90377e-07 65.9815V6.01528ZM28.4989 27.4516H38.2484V32.3476C39.6556 29.5331 43.2556 27 48.6655 27C59.0367 27 61.4945 32.6062 61.4945 42.8924V61.9462H50.9989V45.2356C50.9989 39.3775 49.5916 36.072 46.0178 36.072C41.0596 36.072 38.9978 39.636 38.9978 45.2356V61.9462H28.4989V27.4516ZM10.4989 61.4978H20.9978V27H10.4989V61.4945V61.4978ZM22.5 15.7484C22.5198 16.6473 22.3598 17.5411 22.0295 18.3774C21.6992 19.2137 21.2051 19.9755 20.5764 20.6183C19.9476 21.261 19.1968 21.7717 18.368 22.1204C17.5392 22.469 16.6491 22.6486 15.75 22.6486C14.8509 22.6486 13.9608 22.469 13.132 22.1204C12.3032 21.7717 11.5524 21.261 10.9236 20.6183C10.2949 19.9755 9.80081 19.2137 9.47049 18.3774C9.14016 17.5411 8.98021 16.6473 9 15.7484C9.03885 13.9839 9.76708 12.3048 11.0287 11.0706C12.2904 9.83645 13.9851 9.14537 15.75 9.14537C17.5149 9.14537 19.2096 9.83645 20.4713 11.0706C21.7329 12.3048 22.4611 13.9839 22.5 15.7484V15.7484Z" fill="black"/>
</svg>
