<svg xmlns="http://www.w3.org/2000/svg" width="227" height="227" fill="none" viewBox="0 0 227 227"><g clip-path="url(#clip0)"><path fill="#1586C9" fill-rule="evenodd" d="M2.80717e-06 18.9648C2.80717e-06 13.9351 1.99808 9.11128 5.55466 5.55469C9.11128 1.9981 13.935 2.52827e-05 18.9648 2.52827e-05H208.015C210.507 -0.00404577 212.976 0.483567 215.28 1.43494C217.584 2.38632 219.678 3.78277 221.441 5.54435C223.205 7.30593 224.603 9.39805 225.557 11.7009C226.511 14.0038 227.001 16.4722 227 18.9648V208.015C227.003 210.508 226.514 212.977 225.561 215.281C224.609 217.585 223.211 219.678 221.449 221.442C219.687 223.205 217.594 224.604 215.29 225.557C212.987 226.511 210.518 227.001 208.025 227H18.9648C16.4735 227 14.0065 226.509 11.7049 225.555C9.40332 224.602 7.31221 223.204 5.55103 221.442C3.78983 219.68 2.39312 217.588 1.44065 215.286C0.488186 212.983 -0.00135267 210.516 2.80717e-06 208.025V18.9648ZM89.8507 86.5488H120.589V101.985C125.025 93.1113 136.375 85.125 153.432 85.125C186.13 85.125 193.878 102.8 193.878 135.23V195.303H160.788V142.618C160.788 124.149 156.351 113.727 145.084 113.727C129.452 113.727 122.951 124.963 122.951 142.618V195.303H89.8507V86.5488ZM33.1007 193.889H66.2014V85.125H33.1007V193.878V193.889ZM70.9375 49.6512C70.9999 52.4852 70.4955 55.3032 69.4541 57.9399C68.4128 60.5765 66.855 62.9783 64.8728 65.0049C62.8904 67.0312 60.5232 68.6413 57.9102 69.7407C55.2972 70.8398 52.4909 71.406 49.6563 71.406C46.8216 71.406 44.0153 70.8398 41.4023 69.7407C38.7893 68.6413 36.4222 67.0312 34.4397 65.0049C32.4575 62.9783 30.8998 60.5765 29.8584 57.9399C28.8169 55.3032 28.3126 52.4852 28.375 49.6512C28.4975 44.0881 30.7934 38.7943 34.771 34.9031C38.7489 31.0121 44.0919 28.8333 49.6563 28.8333C55.2206 28.8333 60.5636 31.0121 64.5415 34.9031C68.519 38.7943 70.8149 44.0881 70.9375 49.6512Z" clip-rule="evenodd"/></g><defs><clipPath id="clip0"><rect width="227" height="227" fill="#fff"/></clipPath></defs></svg>