<svg xmlns="http://www.w3.org/2000/svg" width="207" height="202" fill="none" viewBox="0 0 207 202"><path fill="#2E2F2F" fill-opacity=".96" fill-rule="evenodd" d="M103.399 0C46.2712 0 0 46.3407 0 103.555C0 149.378 29.598 188.081 70.6992 201.802C75.8693 202.708 77.8081 199.602 77.8081 196.883C77.8081 194.424 77.6789 186.269 77.6789 177.596C51.6997 182.386 44.9787 171.253 42.9107 165.429C41.7475 162.451 36.7066 153.261 32.3122 150.802C28.6933 148.86 23.5233 144.07 32.183 143.941C40.3258 143.812 46.142 151.449 48.0808 154.555C57.3866 170.218 72.2504 165.817 78.1957 163.099C79.1005 156.368 81.8146 151.837 84.7874 149.248C61.781 146.659 37.7407 137.728 37.7407 98.118C37.7407 86.8565 41.7475 77.5364 48.3392 70.2878C47.3052 67.6987 43.6863 57.0846 49.3732 42.8458C49.3732 42.8458 58.0329 40.1273 77.8081 53.4602C86.0799 51.13 94.8688 49.965 103.658 49.965C112.447 49.965 121.236 51.13 129.508 53.4602C149.283 39.9979 157.943 42.8458 157.943 42.8458C163.63 57.0846 160.011 67.6987 158.977 70.2878C165.568 77.5364 169.575 86.7271 169.575 98.118C169.575 137.857 145.405 146.659 122.399 149.248C126.147 152.484 129.379 158.698 129.379 168.406C129.379 182.256 129.249 193.388 129.249 196.883C129.249 199.602 131.188 202.838 136.358 201.802C156.884 194.862 174.721 181.649 187.357 164.025C199.993 146.401 206.792 125.252 206.799 103.555C206.799 46.3407 160.527 0 103.399 0Z" clip-rule="evenodd"/></svg>