<svg width="66" height="64" viewBox="0 0 66 64" fill="none" xmlns="http://www.w3.org/2000/svg">
<path fill-rule="evenodd" clip-rule="evenodd" d="M32.8094 0C14.6822 0 0 14.6822 0 32.8094C0 47.3276 9.39169 59.5901 22.4334 63.9373C24.0739 64.2244 24.6891 63.2401 24.6891 62.3789C24.6891 61.5997 24.6481 59.0159 24.6481 56.2681C16.4047 57.7856 14.2721 54.2585 13.6159 52.413C13.2468 51.4697 11.6473 48.5579 10.2529 47.7787C9.10461 47.1635 7.46414 45.6461 10.2119 45.6051C12.7957 45.5641 14.6412 47.9837 15.2564 48.968C18.2092 53.9305 22.9256 52.5361 24.8121 51.6748C25.0992 49.5422 25.9604 48.1068 26.9037 47.2866C19.6036 46.4663 11.9754 43.6365 11.9754 31.0869C11.9754 27.5189 13.2468 24.566 15.3384 22.2694C15.0103 21.4491 13.862 18.0862 15.6665 13.5749C15.6665 13.5749 18.4143 12.7136 24.6891 16.9379C27.3138 16.1996 30.1026 15.8305 32.8914 15.8305C35.6802 15.8305 38.469 16.1996 41.0938 16.9379C47.3686 12.6726 50.1164 13.5749 50.1164 13.5749C51.9209 18.0862 50.7726 21.4491 50.4445 22.2694C52.5361 24.566 53.8074 27.4779 53.8074 31.0869C53.8074 43.6775 46.1382 46.4663 38.8381 47.2866C40.0275 48.3118 41.0528 50.2804 41.0528 53.3563C41.0528 57.7445 41.0118 61.2716 41.0118 62.3789C41.0118 63.2401 41.6269 64.2654 43.2674 63.9373C49.7805 61.7383 55.4402 57.5523 59.4497 51.9684C63.4593 46.3844 65.6168 39.6838 65.6188 32.8094C65.6188 14.6822 50.9366 0 32.8094 0Z" fill="black"/>
</svg>
