<svg xmlns="http://www.w3.org/2000/svg" width="205" height="205" fill="none" viewBox="0 0 205 205"><path fill="url(#paint0_linear)" d="M102.473 68.3189C83.6513 68.3189 68.292 83.6785 68.292 102.5C68.292 121.322 83.6513 136.681 102.473 136.681C121.293 136.681 136.653 121.322 136.653 102.5C136.653 83.6785 121.293 68.3189 102.473 68.3189ZM204.989 102.5C204.989 88.3454 205.117 74.319 204.322 60.1902C203.527 43.779 199.783 29.2142 187.783 17.2136C175.757 5.18737 161.218 1.46924 144.807 0.674326C130.653 -0.120585 116.627 0.00762718 102.498 0.00762718C88.3438 0.00762718 74.3179 -0.120585 60.1891 0.674326C43.7782 1.46924 29.2136 5.21301 17.2133 17.2136C5.18729 29.2397 1.46921 43.779 0.674315 60.1902C-0.120583 74.3448 0.00762702 88.371 0.00762702 102.5C0.00762702 116.629 -0.120583 130.681 0.674315 144.81C1.46921 161.221 5.21293 175.786 17.2133 187.786C29.2395 199.813 43.7782 203.531 60.1891 204.326C74.3434 205.12 88.3693 204.992 102.498 204.992C116.652 204.992 130.679 205.12 144.807 204.326C161.218 203.531 175.783 199.787 187.783 187.786C199.809 175.76 203.527 161.221 204.322 144.81C205.142 130.681 204.989 116.655 204.989 102.5ZM102.473 155.092C73.369 155.092 49.881 131.604 49.881 102.5C49.881 73.3959 73.369 49.9077 102.473 49.9077C131.576 49.9077 155.064 73.3959 155.064 102.5C155.064 131.604 131.576 155.092 102.473 155.092ZM157.218 60.0363C150.423 60.0363 144.935 54.5488 144.935 47.7538C144.935 40.9584 150.423 35.4709 157.218 35.4709C164.013 35.4709 169.5 40.9584 169.5 47.7538C169.502 49.3671 169.186 50.9652 168.57 52.4564C167.953 53.9476 167.048 55.3023 165.907 56.4432C164.766 57.5842 163.412 58.489 161.921 59.1054C160.429 59.7221 158.831 60.0383 157.218 60.0363Z"/><defs><linearGradient id="paint0_linear" x1="102.5" x2="102.5" y1="0" y2="205" gradientUnits="userSpaceOnUse"><stop stop-color="#E60202"/><stop offset="1" stop-color="#DD0AA2" stop-opacity=".84"/></linearGradient></defs></svg>