<svg width="73" height="73" viewBox="0 0 73 73" fill="none" xmlns="http://www.w3.org/2000/svg">
<path d="M36.5 0C16.3435 0 0 16.3435 0 36.5C0 56.6565 16.3435 73 36.5 73C56.6565 73 73 56.6565 73 36.5C73 16.3435 56.6565 0 36.5 0ZM54.0412 27.5135C54.0656 27.8964 54.0656 28.2956 54.0656 28.6867C54.0656 40.647 44.9569 54.4241 28.3119 54.4241C23.1791 54.4241 18.4211 52.9331 14.4126 50.3667C15.1459 50.4482 15.8465 50.4808 16.5961 50.4808C20.8327 50.4808 24.7271 49.0469 27.8313 46.619C23.8554 46.5375 20.515 43.9304 19.3743 40.3455C20.7675 40.5492 22.0222 40.5492 23.4561 40.1826C21.4089 39.7667 19.5688 38.6548 18.2485 37.036C16.9282 35.4171 16.209 33.391 16.2132 31.302V31.1879C17.4108 31.8642 18.8203 32.2797 20.295 32.3367C19.0553 31.5105 18.0386 30.3912 17.3351 29.078C16.6317 27.7648 16.2631 26.2984 16.2621 24.8086C16.2621 23.1221 16.702 21.5823 17.4923 20.2461C19.7646 23.0434 22.6001 25.3312 25.8145 26.9608C29.0289 28.5905 32.5502 29.5255 36.1497 29.7051C34.8705 23.5539 39.4656 18.5759 44.9895 18.5759C47.5967 18.5759 49.9431 19.6676 51.597 21.4275C53.642 21.0445 55.5973 20.2787 57.3408 19.2521C56.6646 21.346 55.247 23.114 53.365 24.2301C55.19 24.0346 56.9498 23.5295 58.5792 22.8206C57.349 24.6294 55.8092 26.2344 54.0412 27.5135V27.5135Z" fill="black"/>
</svg>
