<svg xmlns="http://www.w3.org/2000/svg" width="238" height="238" fill="none" viewBox="0 0 238 238"><g filter="url(#filter0_d)"><path fill="#05B4FF" d="M119 0C55.4932 0 4 51.4932 4 115C4 178.507 55.4932 230 119 230C182.507 230 234 178.507 234 115C234 51.4932 182.507 0 119 0ZM174.267 86.6864C174.344 87.8928 174.344 89.1505 174.344 90.3828C174.344 128.066 145.645 171.473 93.2019 171.473C77.03 171.473 62.0391 166.776 49.4096 158.69C51.72 158.946 53.9273 159.049 56.2891 159.049C69.6373 159.049 81.9073 154.531 91.6877 146.882C79.1608 146.625 68.6363 138.411 65.0423 127.116C69.4318 127.758 73.385 127.758 77.9028 126.603C71.4527 125.292 65.6551 121.789 61.4953 116.689C57.3354 111.588 55.0694 105.205 55.0827 98.6227V98.2632C58.8559 100.394 63.2968 101.703 67.9431 101.883C64.0372 99.2797 60.8339 95.7531 58.6174 91.6156C56.4012 87.4781 55.2399 82.858 55.2368 78.1641C55.2368 72.8504 56.6227 67.999 59.1127 63.7891C66.272 72.6025 75.2058 79.8106 85.3334 84.945C95.4609 90.0797 106.555 93.0255 117.896 93.5914C113.866 74.2109 128.344 58.5268 145.748 58.5268C153.962 58.5268 161.355 61.9664 166.566 67.5113C173.009 66.3046 179.17 63.8918 184.663 60.6573C182.532 67.2545 178.066 72.8249 172.136 76.3414C177.886 75.7255 183.431 74.134 188.565 71.9005C184.689 77.5995 179.837 82.6563 174.267 86.6864Z"/></g><defs><filter id="filter0_d" width="238" height="238" x="0" y="0" color-interpolation-filters="sRGB" filterUnits="userSpaceOnUse"><feFlood flood-opacity="0" result="BackgroundImageFix"/><feColorMatrix in="SourceAlpha" type="matrix" values="0 0 0 0 0 0 0 0 0 0 0 0 0 0 0 0 0 0 127 0"/><feOffset dy="4"/><feGaussianBlur stdDeviation="2"/><feColorMatrix type="matrix" values="0 0 0 0 0 0 0 0 0 0 0 0 0 0 0 0 0 0 0.25 0"/><feBlend in2="BackgroundImageFix" mode="normal" result="effect1_dropShadow"/><feBlend in="SourceGraphic" in2="effect1_dropShadow" mode="normal" result="shape"/></filter></defs></svg>