<svg width="31" height="38" viewBox="0 0 31 38" fill="none" xmlns="http://www.w3.org/2000/svg">
<path d="M18.0833 10.0938V0H1.9375C0.863802 0 0 0.794141 0 1.78125V36.2188C0 37.2059 0.863802 38 1.9375 38H29.0625C30.1362 38 31 37.2059 31 36.2188V11.875H20.0208C18.9552 11.875 18.0833 11.0734 18.0833 10.0938ZM24.2551 25.7806L16.4712 32.8834C15.9343 33.3739 15.0673 33.3739 14.5304 32.8834L6.74654 25.7806C5.92714 25.0332 6.50193 23.75 7.65474 23.75H12.9167V17.8125C12.9167 17.1564 13.4947 16.625 14.2083 16.625H16.7917C17.5053 16.625 18.0833 17.1564 18.0833 17.8125V23.75H23.3453C24.4981 23.75 25.0729 25.0332 24.2551 25.7806ZM30.4349 7.79297L22.5315 0.519531C22.1682 0.185547 21.6758 0 21.1591 0H20.6667V9.5H31V9.04727C31 8.57969 30.7982 8.12695 30.4349 7.79297Z" fill="white"/>
</svg>
