<svg width="345" height="365" viewBox="0 0 345 365" fill="none" xmlns="http://www.w3.org/2000/svg">
<path fill-rule="evenodd" clip-rule="evenodd" d="M130.771 59.459C173.074 54.6411 220.869 47.2455 250.834 77.4442C283.288 110.151 289.919 162.204 276.393 206.218C263.866 246.983 226.764 274.635 186.168 287.88C151.709 299.123 116.709 285.559 84.5782 268.799C54.1954 252.951 24.7608 232.279 16.0948 199.167C7.13911 164.948 18.3048 128.726 40.759 101.37C62.8366 74.4734 96.1641 63.4005 130.771 59.459Z" fill="#C491F3"/>
<path fill-rule="evenodd" clip-rule="evenodd" d="M202.808 51.1012C243.517 63.5706 290.292 75.8693 305.711 115.519C322.41 158.463 307.711 208.835 277.74 243.791C249.982 276.166 204.925 286.709 162.416 282.647C126.334 279.199 99.6584 252.792 76.889 224.599C55.3584 197.94 36.6228 167.236 41.8951 133.417C47.3437 98.4683 72.0408 69.7143 103.548 53.5964C134.527 37.7488 169.505 40.9003 202.808 51.1012Z" fill="#61E776"/>
<path fill-rule="evenodd" clip-rule="evenodd" d="M200.808 90.1012C241.517 102.571 288.292 114.869 303.711 154.519C320.41 197.463 305.711 247.835 275.74 282.791C247.982 315.166 202.925 325.709 160.416 321.647C124.334 318.199 97.6584 291.792 74.889 263.599C53.3584 236.94 34.6228 206.236 39.8951 172.417C45.3437 137.468 70.0408 108.714 101.548 92.5964C132.527 76.7488 167.505 79.9003 200.808 90.1012Z" fill="#E7E161"/>
</svg>
