<svg width="664" height="30" viewBox="0 0 664 30" fill="none" xmlns="http://www.w3.org/2000/svg">
<path d="M2 15C15.2 -1 21.8 -1 35 15C48.2 31 54.8 31 68 15C81.2 -1 87.8 -1 101 15C114.2 31 120.8 31 134 15C147.2 -1 153.8 -1 167 15C180.2 31 186.8 31 200 15C213.2 -1 219.8 -1 233 15C246.2 31 252.8 31 266 15C279.2 -1 285.8 -1 299 15C312.2 31 318.8 31 332 15" stroke="#4C75F2" stroke-width="5"/>
<path d="M332 15C345.2 -1 351.8 -1 365 15C378.2 31 384.8 31 398 15C411.2 -1 417.8 -1 431 15C444.2 31 450.8 31 464 15C477.2 -1 483.8 -1 497 15C510.2 31 516.8 31 530 15C543.2 -1 549.8 -1 563 15C576.2 31 582.8 31 596 15C609.2 -1 615.8 -1 629 15C642.2 31 648.8 31 662 15" stroke="#4C75F2" stroke-width="5"/>
</svg>
